<svg width="267" height="226" viewBox="0 0 267 226" fill="none" xmlns="http://www.w3.org/2000/svg">
<g filter="url(#filter0_d_2_4033)">
<path d="M20 88L19.4405 88.0077C8.65884 88.3043 0 97.1471 0 108C0 119.02 8.96 128 20 128C31.02 128 40 119.02 40 108C40 96.96 31.02 88 20 88ZM16.04 100C16.64 99.4 17.58 99.4 18.16 100L25.14 106.94C25.42 107.22 25.58 107.6 25.58 108C25.58 108.4 25.42 108.78 25.14 109.06L18.16 116C17.88 116.3 17.5 116.44 17.12 116.44C16.72 116.44 16.34 116.3 16.04 116C15.46 115.4 15.46 114.46 16.06 113.88L21.96 108L16.06 102.12C15.46 101.54 15.46 100.58 16.04 100Z" fill="#F1D8C0"/>
</g>
<defs>
<filter id="filter0_d_2_4033" x="0" y="0" width="305" height="226" filterUnits="userSpaceOnUse" color-interpolation-filters="sRGB">
<feFlood flood-opacity="0" result="BackgroundImageFix"/>
<feColorMatrix in="SourceAlpha" type="matrix" values="0 0 0 0 0 0 0 0 0 0 0 0 0 0 0 0 0 0 127 0" result="hardAlpha"/>
<feOffset dx="172" dy="5"/>
<feGaussianBlur stdDeviation="46.5"/>
<feComposite in2="hardAlpha" operator="out"/>
<feColorMatrix type="matrix" values="0 0 0 0 0 0 0 0 0 0 0 0 0 0 0 0 0 0 0.26 0"/>
<feBlend mode="normal" in2="BackgroundImageFix" result="effect1_dropShadow_2_4033"/>
<feBlend mode="normal" in="SourceGraphic" in2="effect1_dropShadow_2_4033" result="shape"/>
</filter>
</defs>
</svg>
