<svg width="24" height="20" viewBox="0 0 24 20" fill="none" xmlns="http://www.w3.org/2000/svg">
<path d="M24 2.30755C23.1172 2.69927 22.1691 2.96408 21.1722 3.08311C22.1896 2.47386 22.969 1.50841 23.3371 0.359373C22.3706 0.933403 21.3129 1.33752 20.2098 1.55417C19.3122 0.597366 18.0322 0 16.6161 0C13.8978 0 11.6934 2.20358 11.6934 4.92338C11.6934 5.30874 11.7368 5.6847 11.8202 6.04566C7.72833 5.84001 4.1006 3.87996 1.67237 0.901641C1.24837 1.62903 1.00567 2.47475 1.00567 3.37709C1.00567 5.08498 1.87497 6.59187 3.19584 7.47457C2.41391 7.45034 1.64913 7.23928 0.965445 6.85903V6.92125C0.965445 9.3069 2.66228 11.2961 4.91473 11.7485C4.50096 11.8619 4.06673 11.9211 3.6175 11.9211C3.29987 11.9211 2.99172 11.8911 2.69069 11.8345C3.31722 13.7898 5.1355 15.2131 7.28933 15.2534C5.60431 16.5742 3.48112 17.3616 1.17509 17.3616C0.77791 17.3616 0.385365 17.3379 0 17.2915C2.17918 18.6888 4.7666 19.5045 7.54708 19.5045C16.6026 19.5045 21.5552 12.0024 21.5552 5.4964C21.5552 5.28281 21.5505 5.07081 21.5402 4.85957C22.5051 4.16164 23.338 3.29748 24 2.30755Z" fill="#F1D8C0"/>
</svg>
